<svg width="29" height="29" viewBox="0 0 29 29" fill="none" xmlns="http://www.w3.org/2000/svg">
  <g clip-path="url(#clip0)">
    <path d="M10.5728 1.66667C6.994 1.66667 4.08325 4.57741 4.08325 8.15625V24.586C2.87723 24.3734 1.95825 23.3182 1.95825 22.0521V3.32292C1.95825 1.90409 3.11234 0.75 4.53117 0.75H18.427C19.2097 0.75 19.9105 1.10533 20.3804 1.66667H10.5728Z" fill="#9A9898" stroke="#9A9898" stroke-width="1.5" />
    <path d="M10.5729 5.58331H24.4688C25.8876 5.58331 27.0417 6.7374 27.0417 8.15623V25.6771C27.0417 27.0959 25.8876 28.25 24.4688 28.25H10.5729C9.15409 28.25 8 27.0959 8 25.6771V8.15623C8 6.7374 9.15409 5.58331 10.5729 5.58331ZM12.9896 26.125H22.0521C22.9665 26.125 23.7083 25.3832 23.7083 24.4687C23.7083 23.5543 22.9666 22.8125 22.0521 22.8125H12.9896C12.0751 22.8125 11.3333 23.5543 11.3333 24.4687C11.3333 25.3832 12.0751 26.125 12.9896 26.125ZM12.9896 21.2917H22.0521C22.9665 21.2917 23.7083 20.5499 23.7083 19.6354C23.7083 18.7209 22.9665 17.9792 22.0521 17.9792H12.9896C12.0751 17.9792 11.3333 18.7209 11.3333 19.6354C11.3333 20.5499 12.0751 21.2917 12.9896 21.2917ZM12.9896 17.0625H22.0521C22.9665 17.0625 23.7083 16.3207 23.7083 15.4062C23.7083 14.4918 22.9665 13.75 22.0521 13.75H12.9896C12.0751 13.75 11.3333 14.4918 11.3333 15.4062C11.3333 16.3207 12.0751 17.0625 12.9896 17.0625ZM12.9896 12.2291H22.0521C22.9665 12.2291 23.7083 11.4874 23.7083 10.5729C23.7083 9.65844 22.9665 8.91665 22.0521 8.91665H12.9896C12.0751 8.91665 11.3333 9.65844 11.3333 10.5729C11.3333 11.4874 12.0751 12.2291 12.9896 12.2291Z" fill="#9A9898" stroke="#9A9898" stroke-width="1.5" />
  </g>
  <defs>
    <clipPath id="clip0">
      <rect width="29" height="29" fill="white" />
    </clipPath>
  </defs>
</svg>
