<svg width="29" height="29" viewBox="0 0 29 29" fill="none" xmlns="http://www.w3.org/2000/svg">
  <g clip-path="url(#clip0)">
    <path d="M4.83325 8.15625C4.83325 4.99162 7.40821 2.41667 10.5728 2.41667H21.6085C21.211 1.02587 19.9435 0 18.427 0H4.53117C2.69813 0 1.20825 1.48987 1.20825 3.32292V22.0521C1.20825 23.8851 2.69813 25.375 4.53117 25.375H4.83325V8.15625Z" fill="url(#paint0_linear)" />
    <path d="M10.5728 1.91667C7.13207 1.91667 4.33325 4.71548 4.33325 8.15625V24.8681C2.86838 24.7663 1.70825 23.5424 1.70825 22.0521V3.32292C1.70825 1.76602 2.97427 0.5 4.53117 0.5H18.427C19.4664 0.5 20.3718 1.06965 20.8584 1.91667H10.5728Z" stroke="url(#paint1_linear)" stroke-opacity="0.2" />
    <path d="M24.4688 4.83331H10.5729C8.73988 4.83331 7.25 6.32319 7.25 8.15623V25.6771C7.25 27.5101 8.73988 29 10.5729 29H24.4688C26.3018 29 27.7917 27.5101 27.7917 25.6771V8.15623C27.7917 6.32319 26.3018 4.83331 24.4688 4.83331ZM22.0521 25.375H12.9896C12.4893 25.375 12.0833 24.969 12.0833 24.4687C12.0833 23.9685 12.4893 23.5625 12.9896 23.5625H22.0521C22.5523 23.5625 22.9583 23.9685 22.9583 24.4687C22.9583 24.969 22.5523 25.375 22.0521 25.375ZM22.0521 20.5417H12.9896C12.4893 20.5417 12.0833 20.1357 12.0833 19.6354C12.0833 19.1352 12.4893 18.7292 12.9896 18.7292H22.0521C22.5523 18.7292 22.9583 19.1352 22.9583 19.6354C22.9583 20.1357 22.5523 20.5417 22.0521 20.5417ZM22.0521 16.3125H12.9896C12.4893 16.3125 12.0833 15.9065 12.0833 15.4062C12.0833 14.906 12.4893 14.5 12.9896 14.5H22.0521C22.5523 14.5 22.9583 14.906 22.9583 15.4062C22.9583 15.9065 22.5523 16.3125 22.0521 16.3125ZM22.0521 11.4791H12.9896C12.4893 11.4791 12.0833 11.0731 12.0833 10.5729C12.0833 10.0726 12.4893 9.66665 12.9896 9.66665H22.0521C22.5523 9.66665 22.9583 10.0726 22.9583 10.5729C22.9583 11.0731 22.5523 11.4791 22.0521 11.4791Z" fill="url(#paint2_linear)" />
    <path d="M10.5729 5.33331H24.4688C26.0257 5.33331 27.2917 6.59933 27.2917 8.15623V25.6771C27.2917 27.234 26.0257 28.5 24.4688 28.5H10.5729C9.01602 28.5 7.75 27.234 7.75 25.6771V8.15623C7.75 6.59933 9.01602 5.33331 10.5729 5.33331ZM12.9896 25.875H22.0521C22.8285 25.875 23.4583 25.2451 23.4583 24.4687C23.4583 23.6923 22.8285 23.0625 22.0521 23.0625H12.9896C12.2132 23.0625 11.5833 23.6924 11.5833 24.4687C11.5833 25.2451 12.2132 25.875 12.9896 25.875ZM12.9896 21.0417H22.0521C22.8285 21.0417 23.4583 20.4118 23.4583 19.6354C23.4583 18.859 22.8285 18.2292 22.0521 18.2292H12.9896C12.2132 18.2292 11.5833 18.859 11.5833 19.6354C11.5833 20.4118 12.2132 21.0417 12.9896 21.0417ZM12.9896 16.8125H22.0521C22.8285 16.8125 23.4583 16.1826 23.4583 15.4062C23.4583 14.6298 22.8285 14 22.0521 14H12.9896C12.2132 14 11.5833 14.6298 11.5833 15.4062C11.5833 16.1826 12.2132 16.8125 12.9896 16.8125ZM12.9896 11.9791H22.0521C22.8285 11.9791 23.4583 11.3493 23.4583 10.5729C23.4583 9.79651 22.8285 9.16665 22.0521 9.16665H12.9896C12.2132 9.16665 11.5833 9.79651 11.5833 10.5729C11.5833 11.3493 12.2132 11.9791 12.9896 11.9791Z" stroke="url(#paint3_linear)" stroke-opacity="0.2" />
  </g>
  <defs>
    <linearGradient id="paint0_linear" x1="11.4084" y1="0" x2="11.4084" y2="25.375" gradientUnits="userSpaceOnUse">
      <stop stop-color="#359D9E" />
      <stop offset="0.744792" stop-color="#55C595" />
      <stop offset="1" stop-color="#7CE495" />
    </linearGradient>
    <linearGradient id="paint1_linear" x1="11.4084" y1="0" x2="11.4084" y2="25.375" gradientUnits="userSpaceOnUse">
      <stop stop-opacity="0.2" />
      <stop offset="1" stop-opacity="0" />
    </linearGradient>
    <linearGradient id="paint2_linear" x1="17.5208" y1="4.83331" x2="17.5208" y2="29" gradientUnits="userSpaceOnUse">
      <stop stop-color="#359E91" />
      <stop offset="0.6875" stop-color="#55C595" />
      <stop offset="0.979167" stop-color="#7CE495" />
    </linearGradient>
    <linearGradient id="paint3_linear" x1="17.5208" y1="4.83331" x2="17.5208" y2="29" gradientUnits="userSpaceOnUse">
      <stop />
      <stop offset="1" stop-color="#9A9898" stop-opacity="0" />
    </linearGradient>
    <clipPath id="clip0">
      <rect width="29" height="29" fill="white" />
    </clipPath>
  </defs>
</svg>
