<svg width="29" height="30" viewBox="0 0 29 30" fill="none" xmlns="http://www.w3.org/2000/svg">
  <g clip-path="url(#clip0)">
    <path d="M20.4563 10.8525C20.4746 17.3037 21.9784 21.6446 25.621 25.0106L3.4542 25.0097C5.24231 23.3595 6.5242 21.4603 7.35042 19.2252C8.21474 16.8871 8.61665 14.0953 8.61665 10.7309C8.61665 7.34408 11.2815 4.61561 14.4868 4.58769L14.49 4.58765C14.5021 4.58751 14.5152 4.58749 14.5352 4.58749C16.0508 4.58749 17.4997 5.20199 18.623 6.3488L19.3345 5.65187L18.623 6.3488C19.7795 7.52942 20.4515 9.17409 20.4563 10.8525Z" fill="#9A9898" stroke="#9A9898" stroke-width="2" />
    <path d="M13.2177 28.7721L15.2045 28.7722C14.8911 28.8822 14.5568 28.9414 14.2111 28.9414C13.8654 28.9414 13.5311 28.8822 13.2177 28.7721Z" fill="#9A9898" stroke="#9A9898" stroke-width="2" />
    <mask id="path-3-inside-1" fill="white">
      <path d="M14.5353 1.82556C15.5227 1.82556 16.4821 2.04712 17.3626 2.46758C17.1166 1.03409 15.902 -0.0585938 14.4439 -0.0585938C12.9584 -0.0585938 11.7247 1.07529 11.5115 2.5486C12.4097 2.09427 13.4162 1.83517 14.4781 1.82602C14.4971 1.82579 14.5162 1.82556 14.5353 1.82556Z" />
    </mask>
    <path d="M14.5353 1.82556C15.5227 1.82556 16.4821 2.04712 17.3626 2.46758C17.1166 1.03409 15.902 -0.0585938 14.4439 -0.0585938C12.9584 -0.0585938 11.7247 1.07529 11.5115 2.5486C12.4097 2.09427 13.4162 1.83517 14.4781 1.82602C14.4971 1.82579 14.5162 1.82556 14.5353 1.82556Z" fill="#9A9898" />
    <path d="M17.3626 2.46758L16.5008 4.27238L19.9875 5.93725L19.3338 2.12921L17.3626 2.46758ZM11.5115 2.5486L9.5321 2.26209L8.98094 6.06977L12.4142 4.33331L11.5115 2.5486ZM14.4781 1.82602L14.4953 3.82596L14.5021 3.82588L14.4781 1.82602ZM14.5353 3.82556C15.2204 3.82556 15.8858 3.97869 16.5008 4.27238L18.2244 0.662773C17.0784 0.115548 15.8249 -0.174438 14.5353 -0.174438V3.82556ZM19.3338 2.12921C18.9341 -0.199144 16.9406 -2.05859 14.4439 -2.05859V1.94141C14.8633 1.94141 15.299 2.26732 15.3915 2.80594L19.3338 2.12921ZM14.4439 -2.05859C11.9011 -2.05859 9.87847 -0.130776 9.5321 2.26209L13.4908 2.83511C13.571 2.28135 14.0157 1.94141 14.4439 1.94141V-2.05859ZM12.4142 4.33331C13.0471 4.01317 13.7515 3.83236 14.4953 3.82594L14.4608 -0.173906C13.0809 -0.162009 11.7724 0.175369 10.6088 0.763893L12.4142 4.33331ZM14.5021 3.82588C14.5231 3.82562 14.5302 3.82556 14.5353 3.82556V-0.174438C14.5022 -0.174438 14.4711 -0.174041 14.4541 -0.173837L14.5021 3.82588Z" fill="#9A9898" mask="url(#path-3-inside-1)" />
  </g>
  <defs>
    <clipPath id="clip0">
      <rect width="29" height="30" fill="white" />
    </clipPath>
  </defs>
</svg>
