<svg width="29" height="30" viewBox="0 0 29 30" fill="none" xmlns="http://www.w3.org/2000/svg">
  <g clip-path="url(#clip0)">
    <path d="M26.4783 24.4388C26.4781 24.4386 26.4781 24.4386 26.4779 24.4384C22.9764 21.2979 21.4744 17.2339 21.4563 10.8497C21.4507 8.91354 20.6784 7.01794 19.3374 5.649C18.0337 4.31805 16.3304 3.58746 14.5352 3.58746C14.5162 3.58746 14.4971 3.58746 14.478 3.58769C10.6945 3.62065 7.61665 6.825 7.61665 10.7309C7.61665 14.0215 7.22272 16.6866 6.41246 18.8784C5.61572 21.0338 4.36763 22.8522 2.59703 24.4375C2.3248 24.6812 2.22681 25.079 2.35273 25.4274C2.47865 25.7757 2.80519 26.0096 3.16521 26.0096L25.9097 26.0106C26.2697 26.0106 26.5965 25.7766 26.7224 25.4283C26.8481 25.0802 26.7501 24.6826 26.4783 24.4388Z" fill="url(#paint0_linear)" />
    <path d="M20.9563 10.8511C20.9747 17.3161 22.4996 21.535 26.1307 24.7986L26.1312 24.7992L26.1445 24.8111C26.2617 24.9162 26.3099 25.0982 26.2522 25.2583C26.1952 25.416 26.0513 25.5106 25.9097 25.5106L3.16523 25.5096C3.02371 25.5096 2.88001 25.4152 2.82296 25.2574C2.76498 25.097 2.81325 24.915 2.93057 24.8099C4.75971 23.1723 6.05546 21.2862 6.88144 19.0517C7.71873 16.7869 8.11665 14.0584 8.11665 10.7309C8.11665 7.08452 10.988 4.11811 14.4824 4.08768L14.484 4.08766C14.4996 4.08747 14.5157 4.08746 14.5352 4.08746C16.1906 4.08746 17.7667 4.76001 18.9802 5.99888L19.3374 5.649L18.9802 5.99889C20.2289 7.27367 20.9511 9.0438 20.9563 10.8511ZM26.4719 24.445L26.4719 24.445L26.4783 24.4388L26.4719 24.445Z" stroke="url(#paint1_linear)" stroke-opacity="0.2" />
    <path d="M14.2111 29.9414C15.7507 29.9414 17.095 29.0659 17.804 27.7723L10.618 27.772C11.3272 29.0657 12.6715 29.9414 14.2111 29.9414Z" fill="#7CE495" />
    <path d="M11.5869 28.2721L16.8353 28.2722C16.172 28.9948 15.2384 29.4414 14.2111 29.4414C13.1839 29.4414 12.2503 28.9947 11.5869 28.2721Z" stroke="url(#paint2_linear)" stroke-opacity="0.2" />
    <path d="M14.4439 0.441406C15.3012 0.441406 16.0672 0.902498 16.5097 1.60788C15.8732 1.42182 15.2103 1.32556 14.5353 1.32556C14.5132 1.32556 14.4916 1.32582 14.4733 1.32604L14.4729 1.32605C13.7315 1.33253 13.0151 1.45244 12.3398 1.66943C12.7759 0.929596 13.5617 0.441406 14.4439 0.441406Z" fill="#359D9E" stroke="url(#paint3_linear)" />
  </g>
  <defs>
    <linearGradient id="paint0_linear" x1="14.5375" y1="3.58746" x2="14.5375" y2="26.0106" gradientUnits="userSpaceOnUse">
      <stop stop-color="#359D9E" />
      <stop offset="1" stop-color="#55C595" />
    </linearGradient>
    <linearGradient id="paint1_linear" x1="14.5375" y1="3.58746" x2="14.5375" y2="26.0106" gradientUnits="userSpaceOnUse">
      <stop />
      <stop offset="1" stop-opacity="0" />
    </linearGradient>
    <linearGradient id="paint2_linear" x1="14.211" y1="27.772" x2="14.211" y2="29.9414" gradientUnits="userSpaceOnUse">
      <stop />
      <stop offset="1" stop-opacity="0" />
    </linearGradient>
    <linearGradient id="paint3_linear" x1="14.4371" y1="-0.0585938" x2="14.4371" y2="2.5486" gradientUnits="userSpaceOnUse">
      <stop stop-opacity="0.2" />
      <stop offset="1" stop-opacity="0" />
    </linearGradient>
    <clipPath id="clip0">
      <rect width="29" height="30" fill="white" />
    </clipPath>
  </defs>
</svg>
