<svg width="29" height="29" viewBox="0 0 29 29" fill="none" xmlns="http://www.w3.org/2000/svg">
  <path d="M19.5914 24.9352C19.5914 23.6053 20.6677 22.5491 21.9775 22.5491C23.2627 22.5491 24.3357 23.6148 24.3637 24.944C24.359 26.2698 23.2845 27.3214 21.9775 27.3214C20.6476 27.3214 19.5914 26.2451 19.5914 24.9352Z" stroke="white" stroke-width="2" />
  <path d="M6.17401 5.51469L6.30123 6.36707H7.16305H27.6382C27.6384 6.36712 27.6387 6.36717 27.639 6.36722L27.6447 6.36828C27.6604 6.37118 27.6969 6.37792 27.7294 6.38292C27.744 6.38516 27.7641 6.38812 27.7886 6.39093C27.9377 6.43423 28.0188 6.57942 27.996 6.70744L25.8825 17.2751C25.619 18.4814 24.5549 19.3444 23.345 19.3444H9.80036C8.54069 19.3444 7.46093 18.4078 7.27302 17.1689C7.27293 17.1683 7.27284 17.1677 7.27275 17.1671L5.25465 3.43095L5.25091 3.40546L5.24585 3.38019C5.14143 2.8581 4.68143 2.28328 3.93968 2.28328H1.30237C1.13835 2.28328 1 2.14492 1 1.9809C1 1.81688 1.13835 1.67853 1.30237 1.67853H3.93968C4.91159 1.67853 5.71976 2.39031 5.84663 3.32071L5.84655 3.32072L5.84841 3.33322L6.17401 5.51469Z" stroke="white" stroke-width="2" />
  <path d="M12.6756 24.8088L12.6759 24.8169L12.6763 24.825C12.7433 26.098 11.7395 27.2068 10.423 27.2889H10.3864C9.14209 27.2889 8.11089 26.2906 8.06473 25.0297C8.01964 23.7343 9.0106 22.6318 10.347 22.5492C11.5926 22.5629 12.6305 23.5687 12.6756 24.8088Z" stroke="white" stroke-width="2" />
</svg>
