<svg width="35" height="35" viewBox="0 0 35 35" fill="none" xmlns="http://www.w3.org/2000/svg">
  <g clip-path="url(#clip0)">
    <path d="M34.9995 17.5C35.0023 19.7481 34.5707 21.9755 33.7285 24.0599C33.7264 24.0646 33.7248 24.0687 33.7228 24.0734V24.0739C33.1566 25.4696 32.412 26.786 31.5073 27.9902C31.3328 28.2231 31.1528 28.4513 30.9673 28.6746C30.8995 28.7564 30.8306 28.8377 30.7617 28.918C30.4071 29.3296 30.034 29.7239 29.6424 30.101C29.5512 30.1891 29.4591 30.276 29.3659 30.362C29.3441 30.3822 29.3224 30.4018 29.3006 30.422C28.8445 30.8388 28.3667 31.2311 27.8691 31.5973C27.5351 31.8443 27.1924 32.0788 26.8408 32.301C26.7637 32.3501 26.686 32.3985 26.6078 32.4459C26.4722 32.5288 26.3353 32.6097 26.1972 32.6888C26.0171 32.7923 25.8346 32.8926 25.65 32.9896C25.5754 33.0294 25.5004 33.0677 25.4253 33.1061C25.3155 33.1625 25.2052 33.2169 25.0939 33.2702C25.0748 33.2795 25.0556 33.2888 25.0364 33.2976C24.964 33.3328 24.8904 33.367 24.8169 33.4012C23.8594 33.8428 22.8636 34.1962 21.8419 34.4569C21.8362 34.4584 21.831 34.4595 21.8253 34.461C21.7586 34.4781 21.6912 34.4947 21.6239 34.5107C21.5737 34.5231 21.523 34.5351 21.4722 34.5464C21.466 34.5485 21.4596 34.55 21.4531 34.5511C21.349 34.5754 21.2449 34.5987 21.1398 34.62C21.0808 34.6324 21.0218 34.6448 20.9628 34.6567C20.927 34.6645 20.8908 34.6712 20.8551 34.678C20.81 34.6868 20.7655 34.695 20.7205 34.7038C20.6956 34.709 20.6708 34.7132 20.6454 34.7173C20.5884 34.7277 20.5315 34.738 20.4751 34.7479C20.3787 34.7644 20.2814 34.7805 20.1846 34.795C20.1142 34.8058 20.0443 34.8162 19.9739 34.826C19.891 34.8379 19.8082 34.8488 19.7248 34.8592C19.702 34.8628 19.6793 34.8654 19.6565 34.868C19.627 34.8716 19.5975 34.8752 19.568 34.8788C19.5084 34.8861 19.4489 34.8928 19.3888 34.899C19.3577 34.9027 19.3272 34.9058 19.2961 34.9089C19.2371 34.9151 19.1781 34.9208 19.1191 34.926C19.043 34.9332 18.9668 34.9394 18.8902 34.9456C18.797 34.9529 18.7043 34.9596 18.6106 34.9653C18.5506 34.9689 18.4905 34.9726 18.4299 34.9757C18.2756 34.984 18.1214 34.9896 17.966 34.9938C17.8889 34.9959 17.8112 34.9974 17.7336 34.9984H17.732C17.6549 34.9995 17.5772 35 17.4995 35C16.7125 35.0003 15.9263 34.9477 15.1464 34.8426C14.5742 34.766 14.0113 34.6621 13.4574 34.5309C13.4352 34.5257 13.4129 34.5206 13.3912 34.5149C13.3353 34.5019 13.2799 34.4879 13.2245 34.474C13.1753 34.4615 13.1266 34.4486 13.0774 34.4356C11.8098 34.1058 10.5835 33.6335 9.42209 33.0279C9.4164 33.0248 9.41018 33.0217 9.40449 33.0186C9.37084 33.001 9.3377 32.9839 9.30456 32.9658C9.23156 32.9274 9.1589 32.8884 9.08659 32.8487C8.67498 32.6225 8.27389 32.3805 7.88334 32.1229C7.78289 32.0571 7.68348 31.9903 7.58511 31.9225C7.55353 31.9007 7.52246 31.879 7.4914 31.8572C7.45878 31.8345 7.42616 31.8117 7.39406 31.7889C7.30863 31.7283 7.22372 31.6671 7.13933 31.6051C6.78984 31.3483 6.45072 31.0789 6.12195 30.7969C4.95662 29.7989 3.92687 28.6527 3.05893 27.3875C2.75604 26.9464 2.47335 26.4911 2.21085 26.0217C0.756127 23.4174 -0.00530453 20.4831 -0.000465359 17.5C-0.000465359 7.83513 7.83467 0 17.4995 0C27.1644 0 34.9995 7.83513 34.9995 17.5Z" fill="#F5F5F5" />
    <path opacity="0.2" d="M20.314 34.515C20.3699 34.502 20.4253 34.488 20.4807 34.4741C20.5299 34.4616 20.5785 34.4487 20.6277 34.4357C20.6303 34.3327 20.6339 34.2193 20.6376 34.0966C20.6681 33.1357 20.7401 31.5886 20.9099 29.7247C20.9192 29.6248 20.9285 29.5242 20.9379 29.4229C20.9984 28.7912 21.0694 28.1269 21.1543 27.4383C21.1569 27.4155 21.16 27.3933 21.1626 27.3705C21.2314 26.8124 21.3096 26.2392 21.3976 25.6552C21.4592 25.2467 21.5258 24.8337 21.5975 24.4162C21.6027 24.3872 21.6078 24.3577 21.613 24.3287C21.6337 24.2081 21.6549 24.0879 21.6767 23.9668C21.7373 23.6297 21.802 23.2906 21.8698 22.9515C22.1085 21.7586 22.3927 20.5584 22.7319 19.3909C23.0764 18.1801 23.5006 16.9934 24.0019 15.8386C24.3907 14.9415 24.8538 14.0785 25.3864 13.2586C25.3941 13.2467 25.4019 13.2353 25.4097 13.2234C26.0905 12.1978 26.8687 11.3274 27.7572 10.6766L27.5728 10.425C26.7217 11.0489 25.9409 11.879 25.2305 12.9154C25.2269 12.9206 25.2238 12.9252 25.2202 12.9304C24.686 13.7225 24.2198 14.5584 23.8264 15.4291C23.2997 16.5937 22.8554 17.7938 22.4968 19.0207C22.1572 20.1608 21.8526 21.396 21.583 22.7263C21.4882 23.1948 21.3978 23.675 21.3117 24.1666C21.2972 24.2505 21.2827 24.3344 21.2682 24.4188C21.2682 24.4198 21.2677 24.4214 21.2677 24.4224C21.2454 24.5519 21.2242 24.6813 21.2024 24.8123C21.1486 25.1421 21.0978 25.4693 21.0502 25.7939C20.9767 26.2941 20.9102 26.7856 20.8509 27.2685C20.8312 27.428 20.8122 27.5862 20.7939 27.7433C20.768 27.9649 20.7435 28.1835 20.7204 28.3993C20.6878 28.6996 20.6579 28.9935 20.6308 29.281L20.6231 29.3602C20.6189 29.4058 20.6148 29.4513 20.6106 29.4964C20.4004 31.7636 20.3347 33.5949 20.314 34.515Z" fill="black" />
    <path opacity="0.2" d="M24.2831 33.0279C24.2888 33.0248 24.295 33.0217 24.3007 33.0186C24.4073 32.9632 24.513 32.9068 24.6186 32.8488C24.6533 32.4356 24.6999 31.9815 24.761 31.5042C24.7739 31.4058 24.7869 31.3059 24.8013 31.2054C24.8086 31.1516 24.8164 31.0972 24.8241 31.0423C24.8852 30.6219 24.9577 30.1881 25.0447 29.7521C25.3983 27.9731 25.9854 26.1548 26.9604 25.0323C27.0126 24.9717 27.066 24.9137 27.1214 24.8573C27.2587 24.7146 27.4078 24.5838 27.5672 24.4664L27.3828 24.2153C27.1604 24.3798 26.9556 24.567 26.7719 24.7739C26.7072 24.8459 26.644 24.9208 26.5824 24.9986C25.6851 26.1278 25.1249 27.7997 24.776 29.4549C24.6849 29.8867 24.6082 30.318 24.543 30.7379C24.5264 30.8477 24.5106 30.9564 24.4954 31.0641C24.3944 31.7755 24.3276 32.4475 24.2831 33.0279Z" fill="black" />
    <path opacity="0.2" d="M29.4984 10.6693C30.3588 10.6693 31.0562 9.97186 31.0562 9.11149C31.0562 8.25112 30.3588 7.55365 29.4984 7.55365C28.638 7.55365 27.9406 8.25112 27.9406 9.11149C27.9406 9.97186 28.638 10.6693 29.4984 10.6693Z" fill="black" />
    <path opacity="0.2" d="M28.9967 24.0795C29.8571 24.0795 30.5545 23.3821 30.5545 22.5217C30.5545 21.6613 29.8571 20.9639 28.9967 20.9639C28.1363 20.9639 27.4388 21.6613 27.4388 22.5217C27.4388 23.3821 28.1363 24.0795 28.9967 24.0795Z" fill="black" />
    <path opacity="0.2" d="M23.3135 11.7282C23.6439 13.592 22.9146 15.2796 22.9146 15.2796C22.9146 15.2796 21.6497 13.9454 21.3194 12.0816C20.989 10.2179 21.7183 8.53027 21.7183 8.53027C21.7183 8.53027 22.9832 9.86443 23.3135 11.7282Z" fill="black" />
    <path opacity="0.2" d="M28.491 16.1523C26.7133 16.8024 24.927 16.3852 24.927 16.3852C24.927 16.3852 26.0229 14.9141 27.8006 14.2641C29.5783 13.614 31.3646 14.0312 31.3646 14.0312C31.3646 14.0312 30.2687 15.5023 28.491 16.1523Z" fill="black" />
    <path opacity="0.2" d="M28.7923 28.0276C27.5463 28.4832 26.2925 28.186 26.2925 28.186C26.2925 28.186 27.0588 27.1501 28.3049 26.6944C29.5509 26.2388 30.8047 26.536 30.8047 26.536C30.8047 26.536 30.0384 27.572 28.7923 28.0276Z" fill="black" />
    <path d="M22.7791 27.7655L22.8422 27.7981C22.836 27.8654 22.821 27.9068 22.7791 27.7655Z" fill="#2F2E41" />
    <path d="M22.8623 27.7872C22.8629 27.7945 22.8639 27.8022 22.8644 27.8095L22.8422 27.7981C22.8427 27.7914 22.8432 27.7841 22.8442 27.7769C22.8494 27.6863 22.8432 27.5791 22.8623 27.7872Z" fill="#2F2E41" />
    <path d="M16.1374 25.3103C20.8329 25.3103 24.6394 21.5038 24.6394 16.8083C24.6394 12.1128 20.8329 8.3064 16.1374 8.3064C11.4419 8.3064 7.6355 12.1128 7.6355 16.8083C7.6355 21.5038 11.4419 25.3103 16.1374 25.3103Z" fill="#2F2E41" />
    <path d="M16.8372 24.9637C19.6808 24.9637 21.986 22.6585 21.986 19.8149C21.986 16.9714 19.6808 14.6662 16.8372 14.6662C13.9937 14.6662 11.6885 16.9714 11.6885 19.8149C11.6885 22.6585 13.9937 24.9637 16.8372 24.9637Z" fill="#FDB797" />
    <path d="M28.5938 29.6832L28.5876 29.6847L27.39 29.9721L24.8966 30.5706L24.5564 30.6524L20.7644 31.5621L20.4423 31.6398L11.2424 33.8474C10.6205 33.6095 10.0129 33.3359 9.42253 33.0278C9.41684 33.0247 9.41063 33.0216 9.40493 33.0185C9.37128 33.0009 9.33814 32.9838 9.30501 32.9657C9.232 32.9274 9.15935 32.8884 9.08703 32.8487C8.67542 32.6224 8.27434 32.3805 7.88378 32.1228C7.78333 32.0571 7.68393 31.9903 7.58555 31.9224C7.55397 31.9007 7.52291 31.879 7.49184 31.8572C7.45922 31.8344 7.42661 31.8116 7.3945 31.7889C7.30908 31.7283 7.22416 31.667 7.13977 31.6051C8.03341 29.9809 10.1614 28.9014 12.2893 28.3106C13.8954 27.8643 14.2485 26.3975 14.2179 25.0923C14.2102 24.7945 14.1849 24.4975 14.1424 24.2028C14.0775 23.7336 13.9743 23.2706 13.8338 22.8183L18.9828 22.9902L19.514 24.2142C19.4995 24.3486 19.4948 24.4839 19.5 24.619C19.5404 25.623 20.1602 26.2722 20.9249 26.6911C21.0243 26.7454 21.1263 26.7962 21.2298 26.8433C22.4838 27.4133 23.9599 27.4522 23.9599 27.4522C24.4094 27.4025 24.8635 27.411 25.3108 27.4775C25.4195 27.4941 25.5251 27.514 25.6276 27.5371C26.2262 27.6709 26.7916 27.9239 27.2901 28.2811C27.4805 28.4166 27.6607 28.5659 27.8291 28.7279C28.1284 29.0081 28.386 29.3298 28.5938 29.6832Z" fill="#FDB797" />
    <path d="M29.3663 30.362C29.3446 30.3822 29.3228 30.4019 29.3011 30.4221C28.845 30.8388 28.3671 31.2312 27.8695 31.5974C27.5356 31.8443 27.1928 32.0789 26.8412 32.301C26.7641 32.3502 26.6864 32.3985 26.6083 32.446C26.4726 32.5288 26.3357 32.6097 26.1977 32.6888C26.0175 32.7923 25.8351 32.8926 25.6504 32.9896C25.5759 33.0295 25.5008 33.0678 25.4257 33.1061C25.3159 33.1625 25.2057 33.2169 25.0943 33.2702C25.0752 33.2795 25.056 33.2889 25.0369 33.2977L24.8179 33.1159L27.3901 29.9721L27.9073 29.34C27.9073 29.34 28.1139 29.34 28.5876 29.6848C28.8495 29.8797 29.0969 30.0932 29.328 30.3237C29.3404 30.3366 29.3534 30.3491 29.3663 30.362Z" fill="#D0CDE1" />
    <path d="M29.3301 30.3268C29.3231 30.3594 29.3134 30.3912 29.3011 30.4221C28.845 30.8389 28.3671 31.2312 27.8695 31.5974C27.4378 31.753 26.9899 31.8595 26.5343 31.9148C26.5343 31.9148 26.5731 32.1095 26.6083 32.446C26.4726 32.5288 26.3358 32.6098 26.1977 32.6888C26.0175 32.7924 25.8351 32.8927 25.6504 32.9896C25.5759 33.0295 25.5008 33.0678 25.4257 33.1061C25.316 33.1626 25.2057 33.2169 25.0944 33.2703C25.0752 33.2796 25.0561 33.2889 25.0369 33.2977C24.9644 33.3329 24.8909 33.3671 24.8174 33.4013C23.8599 33.8429 22.8641 34.1962 21.8424 34.457C21.8367 34.4585 21.8315 34.4595 21.8258 34.4611C21.759 34.4782 21.6917 34.4947 21.6244 34.5108C21.5742 34.5232 21.5235 34.5351 21.4727 34.5465C21.4665 34.5486 21.4601 34.5501 21.4536 34.5512C21.3495 34.5755 21.2454 34.5988 21.1403 34.62C21.0813 34.6325 21.0223 34.6449 20.9633 34.6568C20.9275 34.6646 20.8913 34.6713 20.8556 34.678C20.8105 34.6868 20.766 34.6951 20.7209 34.7039C20.6961 34.7091 20.6712 34.7132 20.6459 34.7174C20.5889 34.7277 20.532 34.7381 20.4755 34.7479C20.3792 34.7645 20.2819 34.7805 20.1851 34.795C20.1147 34.8059 20.0448 34.8163 19.9743 34.8261C19.8915 34.838 19.8087 34.8489 19.7253 34.8592C19.7025 34.8629 19.6797 34.8655 19.657 34.868C19.6275 34.8717 19.5979 34.8753 19.5684 34.8789C19.5089 34.8862 19.4493 34.8929 19.3893 34.8991C19.3582 34.9027 19.3277 34.9058 19.2966 34.9089C19.2376 34.9152 19.1786 34.9209 19.1195 34.926C19.0434 34.9333 18.9673 34.9395 18.8907 34.9457C18.7975 34.953 18.7048 34.9597 18.6111 34.9654C18.5511 34.969 18.491 34.9726 18.4304 34.9757C18.2761 34.984 18.1218 34.9897 17.9665 34.9939C17.8894 34.9959 17.8117 34.9975 17.734 34.9985H17.7325C17.6553 34.9996 17.5777 35.0001 17.5 35.0001C16.713 35.0004 15.9268 34.9478 15.1468 34.8427C14.5747 34.7661 14.0118 34.6622 13.4579 34.531C13.4357 34.5258 13.4134 34.5206 13.3917 34.5149C13.3357 34.502 13.2803 34.488 13.2249 34.474C13.1758 34.4616 13.1271 34.4487 13.0779 34.4357C11.8103 34.1058 10.584 33.6336 9.42258 33.028C9.41689 33.0248 9.41067 33.0217 9.40498 33.0186C9.37133 33.001 9.33819 32.9839 9.30505 32.9658C12.147 32.3036 16.638 31.2593 20.5351 30.3646C20.6443 30.3398 20.7529 30.3149 20.8607 30.2901C22.3001 29.9598 23.6483 29.6522 24.7889 29.3949C24.907 29.3685 25.0226 29.3426 25.1358 29.3172C26.3613 29.0418 27.313 28.8326 27.8291 28.728C27.9683 28.6962 28.109 28.6715 28.2506 28.654L29.328 30.3237L29.3301 30.3268Z" fill="#9C6EFE" />
    <path d="M8.35903 13.1905C9.75769 13.1905 10.8915 12.0566 10.8915 10.658C10.8915 9.25932 9.75769 8.12549 8.35903 8.12549C6.96037 8.12549 5.82654 9.25932 5.82654 10.658C5.82654 12.0566 6.96037 13.1905 8.35903 13.1905Z" fill="#2F2E41" />
    <path d="M23.9158 12.4669C25.3145 12.4669 26.4483 11.3331 26.4483 9.93441C26.4483 8.53575 25.3145 7.40192 23.9158 7.40192C22.5171 7.40192 21.3833 8.53575 21.3833 9.93441C21.3833 11.3331 22.5171 12.4669 23.9158 12.4669Z" fill="#2F2E41" />
    <path d="M21.2025 8.84903C21.2025 8.22441 21.4335 7.62186 21.8508 7.15717C22.2682 6.69247 22.8426 6.39841 23.4636 6.3315C23.1099 6.29287 22.7521 6.32919 22.4134 6.43809C22.0747 6.547 21.7628 6.72604 21.4979 6.96356C21.233 7.20108 21.0212 7.49174 20.8761 7.81661C20.7311 8.14147 20.6561 8.49325 20.6561 8.84903C20.6561 9.2048 20.7311 9.55658 20.8761 9.88144C21.0212 10.2063 21.233 10.497 21.4979 10.7345C21.7628 10.972 22.0747 11.1511 22.4134 11.26C22.7521 11.3689 23.1099 11.4052 23.4636 11.3665C22.8426 11.2996 22.2682 11.0056 21.8508 10.5409C21.4335 10.0762 21.2025 9.47364 21.2025 8.84903Z" fill="#2F2E41" />
    <path d="M5.52934 12.7065C5.09226 12.2603 4.8355 11.6683 4.8084 11.0443C4.7813 10.4203 4.98578 9.80822 5.38253 9.32581C5.10288 9.54573 4.8727 9.82211 4.70699 10.1369C4.54129 10.4518 4.44378 10.798 4.42081 11.153C4.39784 11.508 4.44994 11.8639 4.5737 12.1975C4.69747 12.531 4.89012 12.8347 5.13911 13.0889C5.3881 13.343 5.68784 13.5418 6.0188 13.6723C6.34976 13.8029 6.70451 13.8622 7.05993 13.8465C7.41535 13.8308 7.76348 13.7403 8.08162 13.5811C8.39976 13.4218 8.68078 13.1973 8.90636 12.9222C8.41595 13.3091 7.79987 13.501 7.17653 13.4612C6.55318 13.4214 5.96655 13.1526 5.52934 12.7065Z" fill="#2F2E41" />
    <path d="M16.1375 12.8287C13.1403 12.8287 10.7107 14.246 10.7107 15.9944C10.7107 16.7766 11.1991 17.4916 12.0052 18.0439L13.0499 17.2869L12.7658 18.4728C12.8837 18.5275 13.0041 18.5803 13.1296 18.6292L14.6903 16.8084V19.0453C15.1689 19.1219 15.6528 19.1603 16.1375 19.16C19.1346 19.16 21.5642 17.7427 21.5642 15.9944C21.5642 14.246 19.1346 12.8287 16.1375 12.8287Z" fill="#2F2E41" />
    <path d="M21.3834 9.93439C21.3834 9.93439 20.99 11.7433 23.4479 12.4669L21.3834 9.93439Z" fill="#2F2E41" />
    <path d="M10.7107 10.2636C10.7107 10.2636 11.6151 12.286 8.90173 13.1904L10.7107 10.2636Z" fill="#2F2E41" />
    <path d="M12.052 21.8364C12.2802 21.7725 12.3409 21.2768 12.1876 20.7291C12.0343 20.1814 11.725 19.7893 11.4968 19.8531C11.2686 19.917 11.2079 20.4128 11.3612 20.9604C11.5145 21.5081 11.8238 21.9003 12.052 21.8364Z" fill="#FDB797" />
    <path d="M22.5 20.013C22.535 19.4454 22.3716 18.9734 22.1351 18.9588C21.8985 18.9443 21.6785 19.3926 21.6435 19.9603C21.6085 20.5279 21.7719 20.9999 22.0085 21.0145C22.245 21.029 22.4651 20.5807 22.5 20.013Z" fill="#FDB797" />
  </g>
  <defs>
    <clipPath id="clip0">
      <rect width="35" height="35" fill="white" />
    </clipPath>
  </defs>
</svg>
