<svg width="30" height="29" viewBox="0 0 30 29" fill="none" xmlns="http://www.w3.org/2000/svg">
  <path d="M27.8112 4.20671C26.3315 2.58373 24.2788 1.68994 22.0312 1.68994C18.8702 1.68994 16.869 3.5149 15.7468 5.0459C15.4556 5.44318 15.2079 5.84153 15 6.21638C14.7921 5.84153 14.5444 5.44318 14.2532 5.0459C13.131 3.5149 11.1298 1.68994 7.96875 1.68994C5.72121 1.68994 3.6685 2.58379 2.18877 4.20677C0.777363 5.75498 0 7.82848 0 10.0453C0 12.4583 0.97459 14.7027 3.06709 17.1084C4.93723 19.2584 7.62768 21.4747 10.7432 24.041C11.9041 24.9973 13.1046 25.9863 14.3827 27.0673L14.4211 27.0998C14.5868 27.24 14.7934 27.3101 15 27.3101C15.2066 27.3101 15.4132 27.24 15.5789 27.0998L15.6173 27.0673C16.8954 25.9863 18.0959 24.9974 19.257 24.0409C22.3723 21.4747 25.0628 19.2585 26.9329 17.1084C29.0254 14.7027 30 12.4583 30 10.0453C30 7.82848 29.2226 5.75498 27.8112 4.20671ZM18.1168 22.7477C17.116 23.572 16.086 24.4204 15 25.3331C13.914 24.4206 12.884 23.5721 11.883 22.7476C5.78584 17.7251 1.75781 14.407 1.75781 10.0453C1.75781 8.24241 2.3792 6.56789 3.50754 5.33023C4.64883 4.07853 6.23314 3.38916 7.96875 3.38916C10.3787 3.38916 11.9365 4.82432 12.8189 6.02827C13.6104 7.10807 14.0235 8.19659 14.1643 8.61443C14.2822 8.96418 14.6195 9.20088 15 9.20088C15.3805 9.20088 15.7178 8.96418 15.8357 8.61443C15.9765 8.19659 16.3896 7.10807 17.1811 6.02822C18.0635 4.82432 19.6213 3.38916 22.0312 3.38916C23.7669 3.38916 25.3512 4.07853 26.4924 5.33023C27.6208 6.56789 28.2422 8.24241 28.2422 10.0453C28.2422 14.407 24.2142 17.7251 18.1168 22.7477Z" fill="white" />
</svg>
