<svg width="30" height="30" viewBox="0 0 30 30" fill="none" xmlns="http://www.w3.org/2000/svg">
  <g clip-path="url(#clip0)">
    <g filter="url(#filter0_d)">
      <path d="M29.1907 13.0486C29.19 13.0479 29.1893 13.0472 29.1886 13.0465L16.951 0.809326C16.4294 0.287476 15.7359 0 14.9982 0C14.2605 0 13.567 0.287247 13.0451 0.809097L0.813904 13.0401C0.809784 13.0442 0.805664 13.0486 0.801544 13.0527C-0.269623 14.13 -0.267791 15.878 0.806809 16.9526C1.29776 17.4438 1.94618 17.7283 2.63947 17.758C2.66762 17.7608 2.696 17.7621 2.72461 17.7621H3.21236V26.768C3.21236 28.55 4.66232 30 6.44486 30H11.2326C11.7178 30 12.1115 29.6066 12.1115 29.1211V22.0605C12.1115 21.2473 12.773 20.5859 13.5862 20.5859H16.4101C17.2234 20.5859 17.8848 21.2473 17.8848 22.0605V29.1211C17.8848 29.6066 18.2783 30 18.7637 30H23.5515C25.334 30 26.784 28.55 26.784 26.768V17.7621H27.2363C27.9737 17.7621 28.6672 17.4749 29.1893 16.953C30.265 15.8766 30.2655 14.1257 29.1907 13.0486Z" fill="url(#paint0_linear)" />
      <path d="M16.5974 1.16289L16.5974 1.1628C16.1695 0.734715 15.6031 0.5 14.9982 0.5C14.3931 0.5 13.8268 0.734551 13.3987 1.16265L13.0459 0.809832L13.3987 1.16265L1.16793 13.3932C1.16772 13.3934 1.16718 13.3939 1.16609 13.3951L1.15611 13.4052C0.279129 14.2873 0.280748 15.7194 1.16036 16.599L1.16044 16.5991C1.56269 17.0016 2.09249 17.2341 2.66091 17.2585L2.67449 17.2591L2.68802 17.2604C2.69985 17.2615 2.71203 17.2621 2.72461 17.2621H3.21236H3.71236V17.7621V26.768C3.71236 28.2738 4.93842 29.5 6.44486 29.5H11.2326C11.4418 29.5 11.6115 29.3303 11.6115 29.1211V22.0605C11.6115 20.9712 12.4968 20.0859 13.5862 20.0859H16.4101C17.4995 20.0859 18.3848 20.9712 18.3848 22.0605V29.1211C18.3848 29.3304 18.5544 29.5 18.7637 29.5H23.5515C25.0579 29.5 26.284 28.2738 26.284 26.768V17.7621V17.2621H26.784H27.2363C27.8409 17.2621 28.4073 17.0277 28.8356 16.5996C29.7162 15.7185 29.7167 14.284 28.8371 13.4021L28.8371 13.4021L28.837 13.402C28.837 13.402 28.837 13.402 28.837 13.402L28.837 13.402L16.5974 1.16289ZM16.5974 1.16289L28.8351 13.4L28.8351 13.4001M16.5974 1.16289L28.8351 13.4001M28.8351 13.4001L28.8351 13.4001M28.8351 13.4001L28.8351 13.4001M28.8351 13.4001L28.8351 13.4001M28.8351 13.4001L28.8351 13.4001M28.8351 13.4001L28.8351 13.4001M28.8351 13.4001L28.8351 13.4001M28.8351 13.4001L28.8351 13.4001M28.8351 13.4001L28.8351 13.4001M28.8351 13.4001L28.8351 13.4001M28.8351 13.4001L28.8351 13.4001M28.8351 13.4001L28.8351 13.4001M28.8351 13.4001L28.8351 13.4001M28.8351 13.4001L28.8352 13.4001M28.8351 13.4001L28.8352 13.4001M28.8352 13.4001L28.8352 13.4002M28.8352 13.4001L28.8352 13.4002M28.8352 13.4002L28.8352 13.4002M28.8352 13.4002L28.8352 13.4002M28.8352 13.4002L28.8352 13.4002M28.8352 13.4002L28.8352 13.4002M28.8352 13.4002L28.8352 13.4002M28.8352 13.4002L28.8352 13.4002M28.8352 13.4002L28.8352 13.4002M28.8352 13.4002L28.8352 13.4002M28.8352 13.4002L28.8352 13.4002M28.8352 13.4002L28.8352 13.4002M28.8352 13.4002L28.8352 13.4002M28.8352 13.4002L28.8352 13.4002M28.8352 13.4002L28.8353 13.4002M28.8352 13.4002L28.8353 13.4002M28.8353 13.4002L28.8353 13.4003M28.8353 13.4002L28.8353 13.4003M28.8353 13.4003L28.8353 13.4003M28.8353 13.4003L28.8353 13.4003M28.8353 13.4003L28.8353 13.4003M28.8353 13.4003L28.8353 13.4003M28.8353 13.4003L28.8353 13.4003M28.8353 13.4003L28.8353 13.4003M28.8353 13.4003L28.8353 13.4003M28.8353 13.4003L28.8353 13.4003M28.8353 13.4003L28.8353 13.4003M28.8353 13.4003L28.8353 13.4003M28.8353 13.4003L28.8353 13.4003M28.8353 13.4003L28.8353 13.4003M28.8353 13.4003L28.8354 13.4003M28.8353 13.4003L28.8354 13.4003M28.8354 13.4003L28.8354 13.4003M28.8354 13.4003L28.8354 13.4003M28.8354 13.4003L28.8354 13.4004M28.8354 13.4003L28.8354 13.4004M28.8354 13.4004L28.8354 13.4004M28.8354 13.4004L28.8354 13.4004M28.8354 13.4004L28.8354 13.4004M28.8354 13.4004L28.8354 13.4004M28.8354 13.4004L28.8354 13.4004M28.8354 13.4004L28.8354 13.4004M28.8354 13.4004L28.8354 13.4004M28.8354 13.4004L28.8354 13.4004M28.8354 13.4004L28.8354 13.4004M28.8354 13.4004L28.8354 13.4004M28.8354 13.4004L28.8354 13.4004M28.8354 13.4004L28.8354 13.4004M28.8354 13.4004L28.8355 13.4004M28.8354 13.4004L28.8355 13.4004M28.8355 13.4004L28.8355 13.4005M28.8355 13.4004L28.8355 13.4005M28.8355 13.4005L28.8355 13.4005M28.8355 13.4005L28.8355 13.4005M28.8355 13.4005L28.8355 13.4005M28.8355 13.4005L28.8355 13.4005M28.8355 13.4005L28.8355 13.4005M28.8355 13.4005L28.8355 13.4005M28.8355 13.4005L28.8355 13.4005M28.8355 13.4005L28.8355 13.4005M28.8355 13.4005L28.8355 13.4005M28.8355 13.4005L28.8355 13.4005M28.8355 13.4005L28.8355 13.4005M28.8355 13.4005L28.8355 13.4005M28.8355 13.4005L28.8356 13.4005M28.8355 13.4005L28.8356 13.4005M28.8356 13.4005L28.8356 13.4006M28.8356 13.4005L28.8356 13.4006M28.8356 13.4006L28.8356 13.4006M28.8356 13.4006L28.8356 13.4006M28.8356 13.4006L28.8356 13.4006M28.8356 13.4006L28.8356 13.4006M28.8356 13.4006L28.8356 13.4006M28.8356 13.4006L28.8356 13.4006M28.8356 13.4006L28.8356 13.4006M28.8356 13.4006L28.8356 13.4006M28.8356 13.4006L28.8356 13.4006M28.8356 13.4006L28.8356 13.4006M28.8356 13.4006L28.8356 13.4006M28.8356 13.4006L28.8356 13.4006M28.8356 13.4006L28.8357 13.4006M28.8356 13.4006L28.8357 13.4006M28.8357 13.4006L28.8357 13.4007M28.8357 13.4006L28.8357 13.4007M28.8357 13.4007L28.8357 13.4007M28.8357 13.4007L28.8357 13.4007M28.8357 13.4007L28.8357 13.4007M28.8357 13.4007L28.8357 13.4007M28.8357 13.4007L28.8357 13.4007M28.8357 13.4007L28.8357 13.4007M28.8357 13.4007L28.8357 13.4007M28.8357 13.4007L28.8357 13.4007M28.8357 13.4007L28.8357 13.4007M28.8357 13.4007L28.8357 13.4007M28.8357 13.4007L28.8357 13.4007M28.8357 13.4007L28.8357 13.4007M28.8357 13.4007L28.8358 13.4007M28.8357 13.4007L28.8358 13.4007M28.8358 13.4007L28.8358 13.4007M28.8358 13.4007L28.8358 13.4007M28.8358 13.4007L28.8358 13.4008M28.8358 13.4007L28.8358 13.4008M28.8358 13.4008L28.8358 13.4008M28.8358 13.4008L28.8358 13.4008M28.8358 13.4008L28.8358 13.4008M28.8358 13.4008L28.8358 13.4008M28.8358 13.4008L28.8358 13.4008M28.8358 13.4008L28.8358 13.4008M28.8358 13.4008L28.8358 13.4008M28.8358 13.4008L28.8358 13.4008M28.8358 13.4008L28.8358 13.4008M28.8358 13.4008L28.8358 13.4008M28.8358 13.4008L28.8358 13.4008M28.8358 13.4008L28.8358 13.4008M28.8358 13.4008L28.8359 13.4008M28.8358 13.4008L28.8359 13.4008M28.8359 13.4008L28.8359 13.4009M28.8359 13.4008L28.8359 13.4009M28.8359 13.4009L28.8359 13.4009M28.8359 13.4009L28.8359 13.4009M28.8359 13.4009L28.8359 13.4009M28.8359 13.4009L28.8359 13.4009M28.8359 13.4009L28.8359 13.4009M28.8359 13.4009L28.8359 13.4009M28.8359 13.4009L28.8359 13.4009M28.8359 13.4009L28.8359 13.4009M28.8359 13.4009L28.8359 13.4009M28.8359 13.4009L28.8359 13.4009M28.8359 13.4009L28.8359 13.4009M28.8359 13.4009L28.8359 13.4009M28.8359 13.4009L28.836 13.4009M28.8359 13.4009L28.836 13.4009M28.836 13.4009L28.836 13.401M28.836 13.4009L28.836 13.401M28.836 13.401L28.836 13.401M28.836 13.401L28.836 13.401M28.836 13.401L28.836 13.401M28.836 13.401L28.836 13.401M28.836 13.401L28.836 13.401M28.836 13.401L28.836 13.401M28.836 13.401L28.836 13.401M28.836 13.401L28.836 13.401M28.836 13.401L28.836 13.401M28.836 13.401L28.836 13.401M28.836 13.401L28.836 13.401M28.836 13.401L28.836 13.401M28.836 13.401L28.8361 13.401M28.836 13.401L28.8361 13.401M28.8361 13.401L28.8361 13.401M28.8361 13.401L28.8361 13.401M28.8361 13.401L28.8361 13.4011M28.8361 13.401L28.8361 13.4011M28.8361 13.4011L28.8361 13.4011M28.8361 13.4011L28.8361 13.4011M28.8361 13.4011L28.8361 13.4011M28.8361 13.4011L28.8361 13.4011M28.8361 13.4011L28.8361 13.4011M28.8361 13.4011L28.8361 13.4011M28.8361 13.4011L28.8361 13.4011M28.8361 13.4011L28.8361 13.4011M28.8361 13.4011L28.8361 13.4011M28.8361 13.4011L28.8361 13.4011M28.8361 13.4011L28.8361 13.4011M28.8361 13.4011L28.8361 13.4011M28.8361 13.4011L28.8362 13.4011M28.8361 13.4011L28.8362 13.4011M28.8362 13.4011L28.8362 13.4012M28.8362 13.4011L28.8362 13.4012M28.8362 13.4012L28.8362 13.4012M28.8362 13.4012L28.8362 13.4012M28.8362 13.4012L28.8362 13.4012M28.8362 13.4012L28.8362 13.4012M28.8362 13.4012L28.8362 13.4012M28.8362 13.4012L28.8362 13.4012M28.8362 13.4012L28.8362 13.4012M28.8362 13.4012L28.8362 13.4012M28.8362 13.4012L28.8362 13.4012M28.8362 13.4012L28.8362 13.4012M28.8362 13.4012L28.8362 13.4012M28.8362 13.4012L28.8362 13.4012M28.8362 13.4012L28.8363 13.4012M28.8362 13.4012L28.8363 13.4012M28.8363 13.4012L28.8363 13.4013M28.8363 13.4012L28.8363 13.4013M28.8363 13.4013L28.8363 13.4013M28.8363 13.4013L28.8363 13.4013M28.8363 13.4013L28.8363 13.4013M28.8363 13.4013L28.8363 13.4013M28.8363 13.4013L28.8363 13.4013M28.8363 13.4013L28.8363 13.4013M28.8363 13.4013L28.8363 13.4013M28.8363 13.4013L28.8363 13.4013M28.8363 13.4013L28.8363 13.4013M28.8363 13.4013L28.8363 13.4013M28.8363 13.4013L28.8363 13.4013M28.8363 13.4013L28.8363 13.4013M28.8363 13.4013L28.8364 13.4013M28.8363 13.4013L28.8364 13.4013M28.8364 13.4013L28.8364 13.4014M28.8364 13.4013L28.8364 13.4014M28.8364 13.4014L28.8364 13.4014M28.8364 13.4014L28.8364 13.4014M28.8364 13.4014L28.8364 13.4014M28.8364 13.4014L28.8364 13.4014M28.8364 13.4014L28.8364 13.4014M28.8364 13.4014L28.8364 13.4014M28.8364 13.4014L28.8364 13.4014M28.8364 13.4014L28.8364 13.4014M28.8364 13.4014L28.8364 13.4014M28.8364 13.4014L28.8364 13.4014M28.8364 13.4014L28.8364 13.4014M28.8364 13.4014L28.8364 13.4014M28.8364 13.4014L28.8365 13.4014M28.8364 13.4014L28.8365 13.4014M28.8365 13.4014L28.8365 13.4014M28.8365 13.4014L28.8365 13.4014M28.8365 13.4014L28.8365 13.4015M28.8365 13.4014L28.8365 13.4015M28.8365 13.4015L28.8365 13.4015M28.8365 13.4015L28.8365 13.4015M28.8365 13.4015L28.8365 13.4015M28.8365 13.4015L28.8365 13.4015M28.8365 13.4015L28.8365 13.4015M28.8365 13.4015L28.8365 13.4015M28.8365 13.4015L28.8365 13.4015M28.8365 13.4015L28.8365 13.4015M28.8365 13.4015L28.8365 13.4015M28.8365 13.4015L28.8365 13.4015M28.8365 13.4015L28.8365 13.4015M28.8365 13.4015L28.8365 13.4015M28.8365 13.4015L28.8366 13.4015M28.8365 13.4015L28.8366 13.4015M28.8366 13.4015L28.8366 13.4016M28.8366 13.4015L28.8366 13.4016M28.8366 13.4016L28.8366 13.4016M28.8366 13.4016L28.8366 13.4016M28.8366 13.4016L28.8366 13.4016M28.8366 13.4016L28.8366 13.4016M28.8366 13.4016L28.8366 13.4016M28.8366 13.4016L28.8366 13.4016M28.8366 13.4016L28.8366 13.4016M28.8366 13.4016L28.8366 13.4016M28.8366 13.4016L28.8366 13.4016M28.8366 13.4016L28.8366 13.4016M28.8366 13.4016L28.8366 13.4016M28.8366 13.4016L28.8366 13.4016M28.8366 13.4016L28.8367 13.4016M28.8366 13.4016L28.8367 13.4016M28.8367 13.4016L28.8367 13.4017M28.8367 13.4016L28.8367 13.4017M28.8367 13.4017L28.8367 13.4017M28.8367 13.4017L28.8367 13.4017M28.8367 13.4017L28.8367 13.4017M28.8367 13.4017L28.8367 13.4017M28.8367 13.4017L28.8367 13.4017M28.8367 13.4017L28.8367 13.4017M28.8367 13.4017L28.8367 13.4017M28.8367 13.4017L28.8367 13.4017M28.8367 13.4017L28.8367 13.4017M28.8367 13.4017L28.8367 13.4017M28.8367 13.4017L28.8367 13.4017L28.8367 13.4017Z" stroke="url(#paint1_linear)" stroke-opacity="0.2" />
    </g>
  </g>
  <defs>
    <filter id="filter0_d" x="-4.00049" y="0" width="37.9969" height="38" filterUnits="userSpaceOnUse" color-interpolation-filters="sRGB">
      <feFlood flood-opacity="0" result="BackgroundImageFix" />
      <feColorMatrix in="SourceAlpha" type="matrix" values="0 0 0 0 0 0 0 0 0 0 0 0 0 0 0 0 0 0 127 0" />
      <feOffset dy="4" />
      <feGaussianBlur stdDeviation="2" />
      <feColorMatrix type="matrix" values="0 0 0 0 0 0 0 0 0 0 0 0 0 0 0 0 0 0 0.25 0" />
      <feBlend mode="normal" in2="BackgroundImageFix" result="effect1_dropShadow" />
      <feBlend mode="normal" in="SourceGraphic" in2="effect1_dropShadow" result="shape" />
    </filter>
    <linearGradient id="paint0_linear" x1="14.998" y1="0" x2="14.998" y2="30" gradientUnits="userSpaceOnUse">
      <stop stop-color="#55C595" />
      <stop offset="0.0001" stop-color="#359D9E" />
      <stop offset="0.677083" stop-color="#55C595" />
      <stop offset="1" stop-color="#7CE495" />
    </linearGradient>
    <linearGradient id="paint1_linear" x1="14.998" y1="0" x2="14.998" y2="30" gradientUnits="userSpaceOnUse">
      <stop />
      <stop offset="1" stop-opacity="0" />
    </linearGradient>
    <clipPath id="clip0">
      <rect width="30" height="30" fill="white" />
    </clipPath>
  </defs>
</svg>
