<svg width="30" height="30" viewBox="0 0 30 30" fill="none" xmlns="http://www.w3.org/2000/svg">
  <g clip-path="url(#clip0)">
    <path d="M16.2439 1.51645L16.2437 1.51628C15.9096 1.18195 15.4704 1 14.9982 1C14.5257 1 14.0866 1.18186 13.7522 1.5162L13.7522 1.51621L1.52445 13.7437L1.52371 13.7445L1.51899 13.7493L1.51068 13.7577C0.827881 14.4445 0.829288 15.5609 1.51392 16.2455L1.51408 16.2456C1.82762 16.5593 2.23881 16.7399 2.68234 16.7589L2.70951 16.7601L2.73037 16.7621H3.21236H4.21236V17.7621V26.768C4.21236 27.9977 5.21452 29 6.44486 29H11.1115V22.0605C11.1115 20.695 12.2207 19.5859 13.5862 19.5859H16.4101C17.7756 19.5859 18.8848 20.695 18.8848 22.0605V29H23.5515C24.7818 29 25.784 27.9977 25.784 26.768V17.7621V16.7621H26.784H27.2363C27.7082 16.7621 28.1473 16.5805 28.482 16.2462C28.482 16.2461 28.4821 16.2461 28.4821 16.246M16.2439 1.51645L29.1907 13.0486C30.2655 14.1257 30.265 15.8766 29.1893 16.953L28.4824 16.2458C28.4823 16.2459 28.4822 16.2459 28.4821 16.246M16.2439 1.51645L28.4815 13.7536L28.4815 13.7536L28.4815 13.7536L28.4816 13.7536L28.4816 13.7537L28.4816 13.7537L28.4816 13.7537L28.4816 13.7537L28.4816 13.7537L28.4816 13.7537L28.4816 13.7537L28.4817 13.7537L28.4817 13.7538L28.4817 13.7538L28.4817 13.7538L28.4817 13.7538L28.4817 13.7538L28.4817 13.7538L28.4817 13.7538L28.4818 13.7538L28.4818 13.7539L28.4818 13.7539L28.4818 13.7539L28.4818 13.7539L28.4818 13.7539L28.4818 13.7539L28.4818 13.7539L28.4818 13.7539L28.4819 13.754L28.4819 13.754L28.4819 13.754L28.4819 13.754L28.4819 13.754L28.4819 13.754L28.4819 13.754L28.4819 13.754L28.482 13.754L28.482 13.7541L28.482 13.7541L28.482 13.7541L28.482 13.7541L28.482 13.7541L28.482 13.7541L28.482 13.7541L28.4821 13.7541L28.4821 13.7542L28.4821 13.7542L28.4821 13.7542L28.4821 13.7542L28.4821 13.7542L28.4821 13.7542L28.4821 13.7542L28.4821 13.7542L28.4822 13.7543L28.4822 13.7543L28.4822 13.7543L28.4822 13.7543L28.4822 13.7543L28.4822 13.7543L28.4822 13.7543L28.4822 13.7543L28.4823 13.7543L28.4823 13.7544L28.4823 13.7544L28.4823 13.7544L28.4823 13.7544L28.4823 13.7544L28.4823 13.7544L28.4823 13.7544L28.4824 13.7544L28.4824 13.7545L28.4824 13.7545L28.4824 13.7545L28.4824 13.7545L28.4824 13.7545L28.4824 13.7545L28.4824 13.7545L28.4825 13.7545L28.4825 13.7546L28.4825 13.7546L28.4825 13.7546L28.4825 13.7546L28.4825 13.7546L28.4825 13.7546L28.4825 13.7546L28.4825 13.7546L28.4826 13.7547L28.4826 13.7547L28.4826 13.7547L28.4826 13.7547L28.4826 13.7547L28.4826 13.7547L28.4826 13.7547L28.4826 13.7547L28.4827 13.7547L28.4827 13.7548L28.4827 13.7548L28.4827 13.7548L28.4827 13.7548L28.4827 13.7548L28.4827 13.7548L28.4827 13.7548L28.4828 13.7548L28.4828 13.7549L28.4828 13.7549L28.4828 13.7549L28.4828 13.7549L28.4828 13.7549M16.2439 1.51645L28.4832 13.7553M28.4821 16.246C29.1675 15.56 29.1679 14.4419 28.4832 13.7553M28.4821 16.246L28.4832 13.7553M28.4832 13.7553L28.4832 13.7553L28.4832 13.7553L28.4832 13.7553L28.4832 13.7553L28.4833 13.7554L28.4833 13.7554L28.4833 13.7554L28.4833 13.7554L28.4833 13.7554L28.4833 13.7554L28.4833 13.7554L28.4833 13.7554L28.4834 13.7554L28.4834 13.7555L28.4834 13.7555L28.4834 13.7555L28.4834 13.7555L28.4834 13.7555L28.4834 13.7555L28.4834 13.7555L28.4835 13.7555L28.4835 13.7556L28.4835 13.7556L28.4835 13.7556L28.4835 13.7556L28.4835 13.7556L28.4835 13.7556L28.4835 13.7556L28.4835 13.7556L28.4836 13.7557L29.1871 13.0522L28.4828 13.7549M28.4832 13.7553L28.4832 13.7553L28.4832 13.7553L28.4832 13.7552M28.4832 13.7553C28.4832 13.7553 28.4832 13.7553 28.4832 13.7552M28.4828 13.7549L28.4828 13.7549L28.4828 13.7549L28.4828 13.7549M28.4828 13.7549L28.4828 13.7549M28.4828 13.7549L28.4829 13.755L28.4829 13.755L28.4829 13.755L28.4829 13.755L28.4829 13.755C28.4829 13.755 28.4829 13.755 28.4829 13.755L28.483 13.7551L28.4828 13.7549ZM28.4832 13.7552C28.4831 13.7552 28.4831 13.7552 28.4831 13.7552L28.4831 13.7552L28.4832 13.7552ZM28.4831 13.7551C28.4831 13.7552 28.4831 13.7552 28.4831 13.7552L28.4831 13.7552L28.4831 13.7551Z" fill="#9A9898" stroke="#9A9898" stroke-width="2" />
  </g>
  <defs>
    <clipPath id="clip0">
      <rect width="30" height="30" fill="white" />
    </clipPath>
  </defs>
</svg>
