<svg width="35" height="35" viewBox="0 0 35 35" fill="none" xmlns="http://www.w3.org/2000/svg">
  <g opacity="0.5">
    <path opacity="0.5" d="M17.5 35C27.165 35 35 27.165 35 17.5C35 7.83502 27.165 0 17.5 0C7.83502 0 0 7.83502 0 17.5C0 27.165 7.83502 35 17.5 35Z" fill="url(#paint0_linear)" />
  </g>
  <path d="M17.534 34.5191C26.9952 34.5191 34.665 26.8493 34.665 17.3881C34.665 7.92699 26.9952 0.257202 17.534 0.257202C8.07286 0.257202 0.403076 7.92699 0.403076 17.3881C0.403076 26.8493 8.07286 34.5191 17.534 34.5191Z" fill="#F5F5F5" />
  <path d="M17.5502 34.5868C20.8976 34.5922 24.1725 33.6121 26.9666 31.7687C26.3353 28.3189 23.9329 28.1223 23.9329 28.1223H10.6851C10.6851 28.1223 8.41811 28.3083 7.71008 31.4819C10.5908 33.5082 14.0282 34.5928 17.5502 34.5868Z" fill="#FFD464" />
  <path d="M17.3682 25.2958C21.9348 25.2958 25.6368 21.5938 25.6368 17.0272C25.6368 12.4605 21.9348 8.75854 17.3682 8.75854C12.8015 8.75854 9.09955 12.4605 9.09955 17.0272C9.09955 21.5938 12.8015 25.2958 17.3682 25.2958Z" fill="#333333" />
  <path opacity="0.1" d="M14.6995 23.9143H19.9977V28.1529C19.9977 28.8553 19.7187 29.5289 19.2221 30.0257C18.7255 30.5225 18.052 30.8017 17.3496 30.802C16.647 30.802 15.9732 30.5229 15.4764 30.0261C14.9796 29.5293 14.7005 28.8555 14.7005 28.1529V23.9143H14.6995Z" fill="black" />
  <path d="M14.8675 23.7178H19.8317C19.8762 23.7178 19.9189 23.7355 19.9504 23.767C19.9819 23.7985 19.9996 23.8412 19.9996 23.8858V27.9564C19.9997 28.3044 19.9312 28.649 19.798 28.9705C19.6649 29.2921 19.4697 29.5842 19.2236 29.8302C18.9775 30.0763 18.6853 30.2714 18.3637 30.4045C18.0422 30.5376 17.6976 30.6061 17.3496 30.606C16.647 30.606 15.9732 30.3269 15.4764 29.8301C14.9796 29.3333 14.7005 28.6595 14.7005 27.9569V23.8858C14.7005 23.8414 14.7181 23.7988 14.7493 23.7673C14.7806 23.7359 14.8231 23.718 14.8675 23.7178Z" fill="#FDB797" />
  <path opacity="0.1" d="M14.709 25.915C16.4165 26.553 18.2961 26.5581 20.0071 25.9296V25.2777H14.709V25.915Z" fill="black" />
  <path d="M17.3681 26.2696C21.5623 26.2696 24.9623 22.8695 24.9623 18.6754C24.9623 14.4812 21.5623 11.0812 17.3681 11.0812C13.174 11.0812 9.77393 14.4812 9.77393 18.6754C9.77393 22.8695 13.174 26.2696 17.3681 26.2696Z" fill="#FDB797" />
  <path opacity="0.1" d="M11.9586 11.7676C11.9586 11.7676 15.1593 18.2642 24.1876 14.4914L22.0856 11.1955L18.3594 9.85815L11.9586 11.7676Z" fill="black" />
  <path d="M11.9586 11.6724C11.9586 11.6724 15.1593 18.1689 24.1876 14.3951L22.0856 11.0992L18.3594 9.7619L11.9586 11.6724Z" fill="#333333" />
  <path d="M11.9306 11.2321C12.1464 10.5641 12.5194 9.95757 13.0182 9.46356C14.512 7.98684 16.961 7.67545 18.2171 5.99164C18.518 6.45897 18.2853 7.17753 17.7658 7.3781C18.9692 7.37008 20.3637 7.26478 21.0442 6.27495C21.2123 6.66643 21.2659 7.0976 21.1987 7.51834C21.1315 7.93908 20.9463 8.33211 20.6646 8.65174C21.7311 8.70189 22.8709 9.42395 22.9381 10.4895C22.9842 11.1995 22.5369 11.8714 21.9558 12.2786C21.3746 12.6858 20.6666 12.8728 19.9721 13.0257C17.9443 13.4735 10.6073 15.3474 11.9306 11.2321Z" fill="#333333" />
  <path d="M9.77091 19.9931C10.1611 19.9931 10.4774 19.4 10.4774 18.6684C10.4774 17.9367 10.1611 17.3436 9.77091 17.3436C9.38071 17.3436 9.06439 17.9367 9.06439 18.6684C9.06439 19.4 9.38071 19.9931 9.77091 19.9931Z" fill="#FDB797" />
  <path d="M24.9614 19.9931C25.3516 19.9931 25.6679 19.4 25.6679 18.6684C25.6679 17.9367 25.3516 17.3436 24.9614 17.3436C24.5711 17.3436 24.2548 17.9367 24.2548 18.6684C24.2548 19.4 24.5711 19.9931 24.9614 19.9931Z" fill="#FDB797" />
  <defs>
    <linearGradient id="paint0_linear" x1="17.5" y1="35" x2="17.5" y2="0" gradientUnits="userSpaceOnUse">
      <stop stop-color="#808080" stop-opacity="0.25" />
      <stop offset="0.54" stop-color="#808080" stop-opacity="0.12" />
      <stop offset="1" stop-color="#808080" stop-opacity="0.1" />
    </linearGradient>
  </defs>
</svg>
