<svg width="50" height="50" viewBox="0 0 50 50" fill="none" xmlns="http://www.w3.org/2000/svg">
  <g clip-path="url(#clip0)">
    <path d="M33.1714 45.8058L45.7233 48.0165L42.1904 39.7975L42.0672 39.5109L42.2705 39.2742C45.7829 35.1852 47.7094 29.9824 47.7094 24.5959C47.7094 12.0383 37.5243 1.85317 24.9667 1.85303C12.4226 1.86627 2.26427 12.0511 2.29049 24.5949V24.5954C2.3036 37.1397 12.4884 47.2981 25.0324 47.2719H25.0334C27.7197 47.2719 30.3923 46.787 32.907 45.8309L33.0358 45.782L33.1714 45.8058Z" fill="url(#paint0_linear)" stroke="white" />
    <path d="M24.9665 0.0133965C38.5238 0.0133965 49.5491 11.0387 49.5491 24.5959C49.5491 30.1287 47.6602 35.5007 44.2039 39.8277L47.7807 48.1336C48.0755 48.8168 47.7539 49.6072 47.0841 49.8885C46.843 49.9957 46.5751 50.0225 46.3205 49.9823L33.2053 47.6781C30.5796 48.6292 27.82 49.1115 25.0335 49.0981C11.4762 49.0981 0.45092 38.0728 0.45092 24.5156C0.424129 10.9985 11.3691 0.0133965 24.8861 0C24.8995 0.0133965 24.9263 0.0133965 24.9665 0.0133965ZM25.0201 46.4322C27.6056 46.4322 30.1643 45.9633 32.5891 45.0524C32.8169 44.9586 33.058 44.9452 33.2991 44.9854L44.3378 46.9145L41.4174 40.1225C41.2165 39.6536 41.2968 39.1043 41.6317 38.7158C43.2125 36.8805 44.4718 34.7907 45.356 32.5267C46.3473 29.9947 46.8564 27.302 46.8564 24.5825C46.8564 12.4989 37.0233 2.6793 24.9531 2.6793C12.9097 2.6525 3.13022 12.3917 3.11682 24.4352C3.11682 24.462 3.11682 24.4888 3.11682 24.5156C3.11682 36.6126 12.9498 46.4322 25.0201 46.4322Z" fill="white" />
    <path d="M33.2991 22.3319H26.065C25.3282 22.3319 24.7254 21.7291 24.7254 20.9923C24.7254 20.2555 25.3282 19.6526 26.065 19.6526H33.2991C34.036 19.6526 34.6388 20.2555 34.6388 20.9923C34.6388 21.7291 34.036 22.3319 33.2991 22.3319Z" fill="white" />
    <path d="M16.6875 26.3509H33.2991C34.036 26.3509 34.6388 26.9537 34.6388 27.6906C34.6388 28.4274 34.036 29.0302 33.2991 29.0302H16.6875C15.9507 29.0302 15.3478 28.4274 15.3478 27.6906C15.3478 26.9537 15.9507 26.3509 16.6875 26.3509Z" fill="white" />
  </g>
  <defs>
    <linearGradient id="paint0_linear" x1="12.2222" y1="-1.1111" x2="43.8889" y2="48.8889" gradientUnits="userSpaceOnUse">
      <stop offset="0.177083" stop-color="#359D9E" />
      <stop offset="0.729167" stop-color="#55C595" />
      <stop offset="1" stop-color="#7CE495" />
    </linearGradient>
    <clipPath id="clip0">
      <rect width="50" height="50" fill="white" transform="matrix(-1 0 0 1 50 0)" />
    </clipPath>
  </defs>
</svg>
