<svg width="30" height="30" viewBox="0 0 30 30" fill="none" xmlns="http://www.w3.org/2000/svg">
  <g clip-path="url(#clip0)">
    <path d="M19.1882 11.6271L19.1882 11.6271C20.4054 10.4099 21.012 8.94551 21.012 7.22531C21.012 5.50594 20.4055 4.04137 19.1881 2.82369C19.188 2.82363 19.188 2.82357 19.1879 2.82351M19.1882 11.6271L9.67758 12.3344C8.27271 10.9298 7.56042 9.21086 7.56042 7.22531C7.56042 5.24023 8.27271 3.52133 9.67735 2.11669C11.082 0.712049 12.8007 0 14.7862 0C16.7713 0 18.4902 0.712049 19.8951 2.11646L19.1879 2.82351M19.1882 11.6271C17.971 12.8445 16.5062 13.4511 14.7862 13.4511C13.0668 13.4511 11.6021 12.8443 10.3846 11.6272M19.1882 11.6271L10.3846 11.6272M19.1879 2.82351C17.9705 1.60655 16.5059 1 14.7862 1C13.066 1 11.6017 1.6066 10.3845 2.8238C9.1672 4.04105 8.56042 5.50565 8.56042 7.22531C8.56042 8.94543 9.1672 10.41 10.3846 11.6272M19.1879 2.82351L10.3846 11.6272" fill="#9A9898" stroke="#9A9898" stroke-width="2" />
    <path d="M26.4319 23.1384L26.4318 23.1376C26.3942 22.5947 26.3174 21.9933 26.2021 21.3495L26.4319 23.1384ZM26.4319 23.1384C26.4702 23.6851 26.4899 24.258 26.4901 24.8405L26.4319 23.1384ZM27.4294 23.0685C27.3889 22.4839 27.307 21.8462 27.1864 21.1729L27.4294 23.0685ZM27.4294 23.0685C27.4695 23.6397 27.4899 24.236 27.4901 24.8405L27.4294 23.0685ZM25.7678 19.5719L25.7677 19.5717C25.5956 19.0341 25.3603 18.4991 25.0673 17.9837C24.7716 17.4635 24.4322 17.0247 24.064 16.6725L24.0638 16.6724C23.6998 16.3241 23.2418 16.032 22.6896 15.8131C22.1605 15.6039 21.5581 15.4914 20.8914 15.4914C20.8861 15.4914 20.8824 15.4916 20.8746 15.4933C20.8649 15.4955 20.8402 15.5019 20.7943 15.5214C20.693 15.5643 20.535 15.6502 20.2633 15.827C20.2631 15.8272 20.2628 15.8273 20.2626 15.8275L25.7678 19.5719ZM25.7678 19.5719C25.9404 20.1112 26.0871 20.7091 26.202 21.3492L25.7678 19.5719ZM10.9189 16.6215L10.9182 16.621C10.4611 16.3289 10.0466 16.0618 9.68629 15.8271L9.68609 15.8269C9.41453 15.6499 9.25651 15.5641 9.15529 15.5211C9.10952 15.5017 9.08482 15.4953 9.0751 15.4931C9.06726 15.4914 9.06359 15.4911 9.05823 15.4911C8.39133 15.4911 7.78901 15.6039 7.26012 15.8134L7.25997 15.8135C6.70857 16.0318 6.25044 16.3237 5.88601 16.6724L10.9189 16.6215ZM10.9189 16.6215C11.4088 16.934 12.0281 17.2 12.7309 17.4271L10.9189 16.6215ZM4.883 17.9833L4.88294 17.9834C4.59008 18.499 4.35473 19.0337 4.18246 19.5718L4.883 17.9833ZM4.883 17.9833C5.17787 17.4641 5.51737 17.0253 5.88582 16.6726L4.883 17.9833ZM3.51852 23.1381L3.51851 23.1384C3.48035 23.6883 3.46094 24.261 3.46094 24.8407C3.46094 26.1793 3.87776 27.1688 4.6301 27.8853C5.38318 28.6018 6.4042 29.0001 7.75291 29.0001H22.1981C23.547 29.0001 24.5677 28.6019 25.321 27.885L25.321 27.885C26.0731 27.1694 26.49 26.1801 26.4901 24.8408L3.51852 23.1381ZM3.51852 23.1381C3.55616 22.5938 3.63297 21.9922 3.74825 21.3495L3.51852 23.1381ZM3.74827 21.3494C3.86314 20.7094 4.00984 20.1116 4.18237 19.5721L3.74827 21.3494Z" fill="#9A9898" stroke="#9A9898" stroke-width="2" />
  </g>
  <defs>
    <clipPath id="clip0">
      <rect width="30" height="30" fill="white" />
    </clipPath>
  </defs>
</svg>
