<svg width="30" height="30" viewBox="0 0 30 30" fill="none" xmlns="http://www.w3.org/2000/svg">
  <g clip-path="url(#clip0)">
    <path d="M14.7862 14.4511C16.7715 14.4511 18.4907 13.739 19.8953 12.3342C21.3 10.9295 22.012 9.21086 22.012 7.22531C22.012 5.24046 21.3 3.52156 19.8951 2.11646C18.4902 0.712049 16.7713 0 14.7862 0C12.8007 0 11.082 0.712049 9.67735 2.11669C8.27271 3.52133 7.56042 5.24023 7.56042 7.22531C7.56042 9.21086 8.27271 10.9298 9.67758 12.3344C11.0825 13.7388 12.8014 14.4511 14.7862 14.4511Z" fill="url(#paint0_linear)" />
    <path d="M19.5418 11.9806L19.5417 11.9806C18.2308 13.2917 16.6389 13.9511 14.7862 13.9511C12.9341 13.9511 11.3423 13.2916 10.0311 11.9808C8.71996 10.6699 8.06042 9.07815 8.06042 7.22531C8.06042 5.37294 8.71995 3.78119 10.0309 2.47024C11.3418 1.15933 12.9333 0.5 14.7862 0.5C16.6386 0.5 18.2304 1.1593 19.5415 2.46999C20.8527 3.78139 21.512 5.37316 21.512 7.22531C21.512 9.07818 20.8527 10.6697 19.5418 11.9806Z" stroke="url(#paint1_linear)" stroke-opacity="0.2" />
    <path d="M27.4294 23.0685C27.3889 22.4839 27.307 21.8462 27.1864 21.1729C27.0646 20.4945 26.9078 19.8531 26.7201 19.267C26.5263 18.6611 26.2626 18.0628 25.9367 17.4895C25.5984 16.8944 25.201 16.3762 24.7552 15.9498C24.2889 15.5037 23.7181 15.1451 23.058 14.8835C22.4002 14.6232 21.6712 14.4914 20.8914 14.4914C20.5852 14.4914 20.289 14.617 19.717 14.9894C19.365 15.219 18.9532 15.4845 18.4937 15.7781C18.1007 16.0285 17.5683 16.2631 16.9107 16.4755C16.2691 16.6831 15.6178 16.7884 14.9748 16.7884C14.3319 16.7884 13.6807 16.6831 13.0385 16.4755C12.3816 16.2634 11.8492 16.0288 11.4567 15.7784C11.0014 15.4875 10.5894 15.222 10.2322 14.9892C9.66087 14.6168 9.36447 14.4911 9.05823 14.4911C8.2782 14.4911 7.54944 14.6232 6.89186 14.8837C6.23222 15.1448 5.66116 15.5035 5.19447 15.95C4.74884 16.3767 4.35127 16.8946 4.01344 17.4895C3.68774 18.0628 3.42407 18.6609 3.22998 19.2672C3.04253 19.8534 2.88574 20.4945 2.76398 21.1729C2.64336 21.8453 2.56142 22.4832 2.5209 23.0691C2.48108 23.6432 2.46094 24.239 2.46094 24.8407C2.46094 26.4067 2.95876 27.6745 3.94043 28.6094C4.90997 29.5321 6.19286 30.0001 7.75291 30.0001H22.1981C23.7582 30.0001 25.0406 29.5323 26.0104 28.6094C26.9923 27.6751 27.4901 26.4071 27.4901 24.8405C27.4899 24.236 27.4695 23.6397 27.4294 23.0685Z" fill="url(#paint2_linear)" />
    <path d="M26.9307 23.1034L26.9306 23.103C26.8916 22.5393 26.8122 21.9198 26.6942 21.2612L26.9307 23.1034ZM26.9307 23.1034C26.9698 23.6624 26.9899 24.247 26.9901 24.8405L26.9307 23.1034ZM26.2439 19.4194L26.2439 19.4194C26.061 18.8476 25.8114 18.281 25.502 17.7366C25.185 17.179 24.8166 16.7004 24.4096 16.3112L24.4095 16.3111C23.9944 15.9139 23.4801 15.5886 22.8741 15.3484L26.2439 19.4194ZM26.2439 19.4194C26.4241 19.9822 26.5759 20.6018 26.6942 21.261L26.2439 19.4194ZM18.7629 16.1995L18.7623 16.1998C18.3208 16.4811 17.7451 16.7314 17.0646 16.9513L18.7629 16.1995ZM18.7629 16.1995C19.2233 15.9053 19.6363 15.639 19.9898 15.4084C20.5585 15.0382 20.7453 14.9914 20.8914 14.9914C21.6146 14.9914 22.2804 15.1136 22.8738 15.3483L18.7629 16.1995ZM11.1878 16.1999L11.1874 16.1997C10.7313 15.9082 10.318 15.6419 9.95923 15.4081L9.95913 15.4081C9.39138 15.038 9.2043 14.9911 9.05823 14.9911C8.33476 14.9911 7.66922 15.1136 7.07599 15.3485L7.07591 15.3486C6.47039 15.5883 5.9558 15.9136 5.54024 16.3112L11.1878 16.1999ZM11.1878 16.1999C11.629 16.4814 12.2048 16.7317 12.8847 16.9513L11.1878 16.1999ZM4.44822 17.7364L4.44819 17.7365C4.13891 18.2809 3.8894 18.8473 3.70622 19.4195L4.44822 17.7364ZM4.44822 17.7364C4.76457 17.1794 5.1331 16.701 5.54014 16.3113L4.44822 17.7364ZM3.01971 23.1036L3.01971 23.1038C2.98072 23.6657 2.96094 24.25 2.96094 24.8407C2.96094 26.2929 3.4182 27.4215 4.28511 28.2472L3.01971 23.1036ZM3.01971 23.1036C3.05879 22.5385 3.13816 21.9188 3.25611 21.2612L3.01971 23.1036ZM25.6657 28.2472L25.6657 28.2472C26.5327 27.4223 26.99 26.2936 26.9901 24.8406L25.6657 28.2472ZM25.6657 28.2472C24.8041 29.0671 23.6526 29.5001 22.1981 29.5001H7.75291C6.29852 29.5001 5.14658 29.0669 4.28527 28.2474L25.6657 28.2472ZM14.9748 17.2884C15.6724 17.2884 16.3756 17.1742 17.0644 16.9513L12.8848 16.9513C13.5742 17.1742 14.2771 17.2884 14.9748 17.2884ZM3.25612 21.2611C3.37444 20.602 3.52618 19.9825 3.70618 19.4196L3.25612 21.2611Z" stroke="url(#paint3_linear)" stroke-opacity="0.2" />
  </g>
  <defs>
    <linearGradient id="paint0_linear" x1="14.7862" y1="0" x2="14.7862" y2="14.4511" gradientUnits="userSpaceOnUse">
      <stop offset="0.114583" stop-color="#359D9E" />
      <stop offset="1" stop-color="#55C595" />
    </linearGradient>
    <linearGradient id="paint1_linear" x1="14.7862" y1="0" x2="14.7862" y2="14.4511" gradientUnits="userSpaceOnUse">
      <stop />
      <stop offset="1" stop-opacity="0" />
    </linearGradient>
    <linearGradient id="paint2_linear" x1="14.9755" y1="14.4911" x2="14.9755" y2="30.0001" gradientUnits="userSpaceOnUse">
      <stop stop-color="#55C595" />
      <stop offset="0.380208" stop-color="#55C595" />
      <stop offset="1" stop-color="#7CE495" />
    </linearGradient>
    <linearGradient id="paint3_linear" x1="14.9755" y1="14.4911" x2="14.9755" y2="30.0001" gradientUnits="userSpaceOnUse">
      <stop />
      <stop offset="1" stop-opacity="0" />
    </linearGradient>
    <clipPath id="clip0">
      <rect width="30" height="30" fill="white" />
    </clipPath>
  </defs>
</svg>
